<mxfile host="app.diagrams.net" modified="2022-03-16T08:40:25.708Z" agent="5.0 (Windows NT 10.0; Win64; x64) AppleWebKit/537.36 (KHTML, like Gecko) Chrome/99.0.4844.51 Safari/537.36" etag="WhmJ3PtWUeGMdlbWuK_9" version="17.1.3" type="github">
  <diagram id="C5RBs43oDa-KdzZeNtuy" name="Page-1">
    <mxGraphModel dx="1422" dy="772" grid="1" gridSize="10" guides="1" tooltips="1" connect="1" arrows="1" fold="1" page="1" pageScale="1" pageWidth="827" pageHeight="1169" math="0" shadow="0">
      <root>
        <mxCell id="WIyWlLk6GJQsqaUBKTNV-0" />
        <mxCell id="WIyWlLk6GJQsqaUBKTNV-1" parent="WIyWlLk6GJQsqaUBKTNV-0" />
        <mxCell id="ZgkhBRcGi_nItmCS9kc1-2" value="" style="edgeStyle=orthogonalEdgeStyle;rounded=0;orthogonalLoop=1;jettySize=auto;html=1;" edge="1" parent="WIyWlLk6GJQsqaUBKTNV-1" source="WIyWlLk6GJQsqaUBKTNV-3" target="ZgkhBRcGi_nItmCS9kc1-1">
          <mxGeometry relative="1" as="geometry" />
        </mxCell>
        <mxCell id="WIyWlLk6GJQsqaUBKTNV-3" value="CAN Matrics" style="rounded=1;whiteSpace=wrap;html=1;fontSize=12;glass=0;strokeWidth=1;shadow=0;" parent="WIyWlLk6GJQsqaUBKTNV-1" vertex="1">
          <mxGeometry x="160" y="80" width="120" height="40" as="geometry" />
        </mxCell>
        <mxCell id="ZgkhBRcGi_nItmCS9kc1-6" value="" style="edgeStyle=orthogonalEdgeStyle;rounded=0;orthogonalLoop=1;jettySize=auto;html=1;" edge="1" parent="WIyWlLk6GJQsqaUBKTNV-1" source="ZgkhBRcGi_nItmCS9kc1-1" target="ZgkhBRcGi_nItmCS9kc1-4">
          <mxGeometry relative="1" as="geometry" />
        </mxCell>
        <mxCell id="ZgkhBRcGi_nItmCS9kc1-1" value="SCIR" style="rounded=1;whiteSpace=wrap;html=1;" vertex="1" parent="WIyWlLk6GJQsqaUBKTNV-1">
          <mxGeometry x="160" y="170" width="120" height="40" as="geometry" />
        </mxCell>
        <mxCell id="ZgkhBRcGi_nItmCS9kc1-8" value="" style="edgeStyle=orthogonalEdgeStyle;rounded=0;orthogonalLoop=1;jettySize=auto;html=1;" edge="1" parent="WIyWlLk6GJQsqaUBKTNV-1" source="ZgkhBRcGi_nItmCS9kc1-4" target="ZgkhBRcGi_nItmCS9kc1-7">
          <mxGeometry relative="1" as="geometry" />
        </mxCell>
        <mxCell id="ZgkhBRcGi_nItmCS9kc1-12" style="edgeStyle=orthogonalEdgeStyle;rounded=0;orthogonalLoop=1;jettySize=auto;html=1;entryX=0.5;entryY=0;entryDx=0;entryDy=0;" edge="1" parent="WIyWlLk6GJQsqaUBKTNV-1" source="ZgkhBRcGi_nItmCS9kc1-4" target="ZgkhBRcGi_nItmCS9kc1-11">
          <mxGeometry relative="1" as="geometry">
            <Array as="points">
              <mxPoint x="30" y="305" />
            </Array>
          </mxGeometry>
        </mxCell>
        <mxCell id="ZgkhBRcGi_nItmCS9kc1-19" style="edgeStyle=orthogonalEdgeStyle;rounded=0;orthogonalLoop=1;jettySize=auto;html=1;exitX=1;exitY=0.5;exitDx=0;exitDy=0;" edge="1" parent="WIyWlLk6GJQsqaUBKTNV-1" source="ZgkhBRcGi_nItmCS9kc1-4">
          <mxGeometry relative="1" as="geometry">
            <mxPoint x="430" y="410" as="targetPoint" />
          </mxGeometry>
        </mxCell>
        <mxCell id="ZgkhBRcGi_nItmCS9kc1-4" value="Decide to develop by QM MM, MM or CF?" style="rhombus;whiteSpace=wrap;html=1;" vertex="1" parent="WIyWlLk6GJQsqaUBKTNV-1">
          <mxGeometry x="70" y="260" width="300" height="90" as="geometry" />
        </mxCell>
        <mxCell id="ZgkhBRcGi_nItmCS9kc1-7" value="" style="ellipse;whiteSpace=wrap;html=1;aspect=fixed;" vertex="1" parent="WIyWlLk6GJQsqaUBKTNV-1">
          <mxGeometry x="210" y="410" width="20" height="20" as="geometry" />
        </mxCell>
        <mxCell id="ZgkhBRcGi_nItmCS9kc1-11" value="" style="ellipse;whiteSpace=wrap;html=1;aspect=fixed;" vertex="1" parent="WIyWlLk6GJQsqaUBKTNV-1">
          <mxGeometry x="20" y="410" width="20" height="20" as="geometry" />
        </mxCell>
        <mxCell id="ZgkhBRcGi_nItmCS9kc1-20" value="QM MM" style="text;html=1;align=center;verticalAlign=middle;resizable=0;points=[];autosize=1;strokeColor=none;fillColor=none;" vertex="1" parent="WIyWlLk6GJQsqaUBKTNV-1">
          <mxGeometry y="440" width="60" height="20" as="geometry" />
        </mxCell>
        <mxCell id="ZgkhBRcGi_nItmCS9kc1-21" value="MM" style="text;html=1;align=center;verticalAlign=middle;resizable=0;points=[];autosize=1;strokeColor=none;fillColor=none;" vertex="1" parent="WIyWlLk6GJQsqaUBKTNV-1">
          <mxGeometry x="200" y="440" width="40" height="20" as="geometry" />
        </mxCell>
        <mxCell id="ZgkhBRcGi_nItmCS9kc1-24" value="CF" style="text;html=1;strokeColor=none;fillColor=none;align=center;verticalAlign=middle;whiteSpace=wrap;rounded=0;" vertex="1" parent="WIyWlLk6GJQsqaUBKTNV-1">
          <mxGeometry x="400" y="350" width="90" height="30" as="geometry" />
        </mxCell>
        <mxCell id="ZgkhBRcGi_nItmCS9kc1-28" value="" style="edgeStyle=orthogonalEdgeStyle;rounded=0;orthogonalLoop=1;jettySize=auto;html=1;" edge="1" parent="WIyWlLk6GJQsqaUBKTNV-1" source="ZgkhBRcGi_nItmCS9kc1-26" target="ZgkhBRcGi_nItmCS9kc1-27">
          <mxGeometry relative="1" as="geometry" />
        </mxCell>
        <mxCell id="ZgkhBRcGi_nItmCS9kc1-26" value="Requirement" style="rounded=1;whiteSpace=wrap;html=1;" vertex="1" parent="WIyWlLk6GJQsqaUBKTNV-1">
          <mxGeometry x="370" y="410" width="120" height="40" as="geometry" />
        </mxCell>
        <mxCell id="ZgkhBRcGi_nItmCS9kc1-31" value="" style="edgeStyle=orthogonalEdgeStyle;rounded=0;orthogonalLoop=1;jettySize=auto;html=1;" edge="1" parent="WIyWlLk6GJQsqaUBKTNV-1" source="ZgkhBRcGi_nItmCS9kc1-27" target="ZgkhBRcGi_nItmCS9kc1-30">
          <mxGeometry relative="1" as="geometry" />
        </mxCell>
        <mxCell id="ZgkhBRcGi_nItmCS9kc1-27" value="Requirement Review" style="rounded=1;whiteSpace=wrap;html=1;" vertex="1" parent="WIyWlLk6GJQsqaUBKTNV-1">
          <mxGeometry x="365" y="491" width="130" height="40" as="geometry" />
        </mxCell>
        <mxCell id="ZgkhBRcGi_nItmCS9kc1-33" value="" style="edgeStyle=orthogonalEdgeStyle;rounded=0;orthogonalLoop=1;jettySize=auto;html=1;" edge="1" parent="WIyWlLk6GJQsqaUBKTNV-1" source="ZgkhBRcGi_nItmCS9kc1-30" target="ZgkhBRcGi_nItmCS9kc1-32">
          <mxGeometry relative="1" as="geometry" />
        </mxCell>
        <mxCell id="ZgkhBRcGi_nItmCS9kc1-30" value="Design" style="rounded=1;whiteSpace=wrap;html=1;" vertex="1" parent="WIyWlLk6GJQsqaUBKTNV-1">
          <mxGeometry x="365" y="568" width="130" height="40" as="geometry" />
        </mxCell>
        <mxCell id="ZgkhBRcGi_nItmCS9kc1-35" value="" style="edgeStyle=orthogonalEdgeStyle;rounded=0;orthogonalLoop=1;jettySize=auto;html=1;" edge="1" parent="WIyWlLk6GJQsqaUBKTNV-1" source="ZgkhBRcGi_nItmCS9kc1-32" target="ZgkhBRcGi_nItmCS9kc1-34">
          <mxGeometry relative="1" as="geometry" />
        </mxCell>
        <mxCell id="ZgkhBRcGi_nItmCS9kc1-32" value="Design Review" style="rounded=1;whiteSpace=wrap;html=1;" vertex="1" parent="WIyWlLk6GJQsqaUBKTNV-1">
          <mxGeometry x="365" y="643" width="130" height="40" as="geometry" />
        </mxCell>
        <mxCell id="ZgkhBRcGi_nItmCS9kc1-37" value="" style="edgeStyle=orthogonalEdgeStyle;rounded=0;orthogonalLoop=1;jettySize=auto;html=1;" edge="1" parent="WIyWlLk6GJQsqaUBKTNV-1" source="ZgkhBRcGi_nItmCS9kc1-34" target="ZgkhBRcGi_nItmCS9kc1-36">
          <mxGeometry relative="1" as="geometry">
            <Array as="points">
              <mxPoint x="540" y="743" />
              <mxPoint x="540" y="260" />
            </Array>
          </mxGeometry>
        </mxCell>
        <mxCell id="ZgkhBRcGi_nItmCS9kc1-34" value="MIL" style="rounded=1;whiteSpace=wrap;html=1;" vertex="1" parent="WIyWlLk6GJQsqaUBKTNV-1">
          <mxGeometry x="365" y="723" width="130" height="40" as="geometry" />
        </mxCell>
        <mxCell id="ZgkhBRcGi_nItmCS9kc1-39" value="" style="edgeStyle=orthogonalEdgeStyle;rounded=0;orthogonalLoop=1;jettySize=auto;html=1;" edge="1" parent="WIyWlLk6GJQsqaUBKTNV-1" source="ZgkhBRcGi_nItmCS9kc1-36" target="ZgkhBRcGi_nItmCS9kc1-38">
          <mxGeometry relative="1" as="geometry" />
        </mxCell>
        <mxCell id="ZgkhBRcGi_nItmCS9kc1-36" value="MIL Review" style="rounded=1;whiteSpace=wrap;html=1;" vertex="1" parent="WIyWlLk6GJQsqaUBKTNV-1">
          <mxGeometry x="580" y="240" width="130" height="40" as="geometry" />
        </mxCell>
        <mxCell id="ZgkhBRcGi_nItmCS9kc1-41" value="" style="edgeStyle=orthogonalEdgeStyle;rounded=0;orthogonalLoop=1;jettySize=auto;html=1;" edge="1" parent="WIyWlLk6GJQsqaUBKTNV-1" source="ZgkhBRcGi_nItmCS9kc1-38" target="ZgkhBRcGi_nItmCS9kc1-40">
          <mxGeometry relative="1" as="geometry" />
        </mxCell>
        <mxCell id="ZgkhBRcGi_nItmCS9kc1-38" value="Impl" style="rounded=1;whiteSpace=wrap;html=1;" vertex="1" parent="WIyWlLk6GJQsqaUBKTNV-1">
          <mxGeometry x="580" y="310" width="130" height="40" as="geometry" />
        </mxCell>
        <mxCell id="ZgkhBRcGi_nItmCS9kc1-43" value="" style="edgeStyle=orthogonalEdgeStyle;rounded=0;orthogonalLoop=1;jettySize=auto;html=1;" edge="1" parent="WIyWlLk6GJQsqaUBKTNV-1" source="ZgkhBRcGi_nItmCS9kc1-40" target="ZgkhBRcGi_nItmCS9kc1-42">
          <mxGeometry relative="1" as="geometry" />
        </mxCell>
        <mxCell id="ZgkhBRcGi_nItmCS9kc1-40" value="Impl Review" style="rounded=1;whiteSpace=wrap;html=1;" vertex="1" parent="WIyWlLk6GJQsqaUBKTNV-1">
          <mxGeometry x="580" y="390" width="130" height="40" as="geometry" />
        </mxCell>
        <mxCell id="ZgkhBRcGi_nItmCS9kc1-45" value="" style="edgeStyle=orthogonalEdgeStyle;rounded=0;orthogonalLoop=1;jettySize=auto;html=1;" edge="1" parent="WIyWlLk6GJQsqaUBKTNV-1" source="ZgkhBRcGi_nItmCS9kc1-42" target="ZgkhBRcGi_nItmCS9kc1-44">
          <mxGeometry relative="1" as="geometry" />
        </mxCell>
        <mxCell id="ZgkhBRcGi_nItmCS9kc1-42" value="SIL" style="rounded=1;whiteSpace=wrap;html=1;" vertex="1" parent="WIyWlLk6GJQsqaUBKTNV-1">
          <mxGeometry x="580" y="470" width="130" height="40" as="geometry" />
        </mxCell>
        <mxCell id="ZgkhBRcGi_nItmCS9kc1-47" value="" style="edgeStyle=orthogonalEdgeStyle;rounded=0;orthogonalLoop=1;jettySize=auto;html=1;" edge="1" parent="WIyWlLk6GJQsqaUBKTNV-1" source="ZgkhBRcGi_nItmCS9kc1-44" target="ZgkhBRcGi_nItmCS9kc1-46">
          <mxGeometry relative="1" as="geometry" />
        </mxCell>
        <mxCell id="ZgkhBRcGi_nItmCS9kc1-44" value="SIL Review" style="rounded=1;whiteSpace=wrap;html=1;" vertex="1" parent="WIyWlLk6GJQsqaUBKTNV-1">
          <mxGeometry x="580" y="550" width="130" height="40" as="geometry" />
        </mxCell>
        <mxCell id="ZgkhBRcGi_nItmCS9kc1-49" value="" style="edgeStyle=orthogonalEdgeStyle;rounded=0;orthogonalLoop=1;jettySize=auto;html=1;" edge="1" parent="WIyWlLk6GJQsqaUBKTNV-1" source="ZgkhBRcGi_nItmCS9kc1-46" target="ZgkhBRcGi_nItmCS9kc1-48">
          <mxGeometry relative="1" as="geometry" />
        </mxCell>
        <mxCell id="ZgkhBRcGi_nItmCS9kc1-46" value="PIL" style="rounded=1;whiteSpace=wrap;html=1;" vertex="1" parent="WIyWlLk6GJQsqaUBKTNV-1">
          <mxGeometry x="580" y="630" width="130" height="40" as="geometry" />
        </mxCell>
        <mxCell id="ZgkhBRcGi_nItmCS9kc1-51" value="" style="edgeStyle=orthogonalEdgeStyle;rounded=0;orthogonalLoop=1;jettySize=auto;html=1;" edge="1" parent="WIyWlLk6GJQsqaUBKTNV-1" source="ZgkhBRcGi_nItmCS9kc1-48" target="ZgkhBRcGi_nItmCS9kc1-50">
          <mxGeometry relative="1" as="geometry" />
        </mxCell>
        <mxCell id="ZgkhBRcGi_nItmCS9kc1-48" value="PIL Review" style="rounded=1;whiteSpace=wrap;html=1;" vertex="1" parent="WIyWlLk6GJQsqaUBKTNV-1">
          <mxGeometry x="580" y="710" width="130" height="40" as="geometry" />
        </mxCell>
        <mxCell id="ZgkhBRcGi_nItmCS9kc1-50" value="End" style="rounded=1;whiteSpace=wrap;html=1;" vertex="1" parent="WIyWlLk6GJQsqaUBKTNV-1">
          <mxGeometry x="580" y="790" width="130" height="40" as="geometry" />
        </mxCell>
      </root>
    </mxGraphModel>
  </diagram>
</mxfile>
